<svg width="205" height="70" viewBox="0 0 205 70" fill="none" xmlns="http://www.w3.org/2000/svg">
<path d="M121.337 68.16C120.633 68.16 120.057 67.904 119.609 67.392C119.225 66.88 119.097 66.272 119.225 65.568L132.473 3.55199C132.601 2.84799 132.953 2.23999 133.529 1.72799C134.169 1.21599 134.841 0.959991 135.545 0.959991H150.713C151.993 0.959991 152.889 1.31199 153.401 2.016C153.913 2.71999 154.233 3.23199 154.361 3.55199L163.385 26.592L182.201 3.55199C182.457 3.23199 182.969 2.71999 183.737 2.016C184.505 1.31199 185.529 0.959991 186.809 0.959991H201.977C202.681 0.959991 203.225 1.21599 203.609 1.72799C204.057 2.23999 204.217 2.84799 204.089 3.55199L190.841 65.568C190.713 66.272 190.329 66.88 189.689 67.392C189.113 67.904 188.473 68.16 187.769 68.16H170.393C169.689 68.16 169.113 67.904 168.665 67.392C168.281 66.88 168.153 66.272 168.281 65.568L173.849 39.264L165.401 49.632C164.953 50.144 164.377 50.688 163.673 51.264C163.033 51.776 162.233 52.032 161.273 52.032H154.553C153.593 52.032 152.889 51.776 152.441 51.264C152.057 50.688 151.769 50.144 151.577 49.632L147.353 39.264L141.785 65.568C141.657 66.272 141.273 66.88 140.633 67.392C140.057 67.904 139.417 68.16 138.713 68.16H121.337Z" fill="#080808"/>
<path d="M100.008 0C104.231 2.3927e-05 108.199 0.575668 111.911 1.72754C115.687 2.87954 118.919 4.57641 121.607 6.81641C124.359 9.05639 126.343 11.8083 127.559 15.0723C128.839 18.3361 129.127 22.0799 128.424 26.3037C127.976 29.0556 127.432 31.9038 126.792 34.8477C126.152 37.7917 125.511 40.5762 124.871 43.2002C122.695 51.7761 118.791 58.2398 113.159 62.5918C107.527 66.9437 99.5268 69.1201 89.1589 69.1201C84.935 69.1201 80.9348 68.5763 77.1589 67.4883C73.4471 66.4003 70.2155 64.7677 67.4636 62.5918C64.7757 60.4159 62.7915 57.7282 61.5115 54.5283C60.2955 51.2644 60.0389 47.4881 60.7429 43.2002C61.1909 40.5762 61.7357 37.7917 62.3757 34.8477C63.0157 31.9038 63.6557 29.0556 64.2956 26.3037C66.4076 17.92 70.2791 11.456 75.9109 6.91211C81.6069 2.30411 89.6395 0 100.008 0ZM94.4324 27.1602C90.5664 27.1602 87.4324 30.2942 87.4324 34.1602C87.4324 38.0261 90.5664 41.1602 94.4324 41.1602C98.2981 41.16 101.432 38.026 101.432 34.1602C101.432 30.2943 98.2982 27.1603 94.4324 27.1602Z" fill="#080808"/>
<path d="M29.328 69.12C22.288 69.12 16.496 68.16 11.952 66.24C7.408 64.32 4.144 61.792 2.16 58.656C0.24 55.52 -0.4 52.192 0.24 48.672C0.368 48.096 0.656 47.616 1.104 47.232C1.616 46.784 2.16 46.56 2.736 46.56H20.976C22 46.56 22.736 46.72 23.184 47.04C23.696 47.296 24.24 47.68 24.816 48.192C25.328 48.64 25.872 49.056 26.448 49.44C27.088 49.76 27.824 50.016 28.656 50.208C29.488 50.336 30.416 50.4 31.44 50.4C33.616 50.4 35.408 50.176 36.816 49.728C38.224 49.216 39.024 48.544 39.216 47.712C39.408 46.944 39.184 46.304 38.544 45.792C37.904 45.28 36.72 44.832 34.992 44.448C33.264 44 30.864 43.584 27.792 43.2C22.864 42.496 18.736 41.216 15.408 39.36C12.08 37.44 9.712 34.912 8.304 31.776C6.96 28.64 6.768 24.96 7.728 20.736C9.072 14.208 12.528 9.12 18.096 5.472C23.664 1.824 30.8 0 39.504 0C43.856 0 47.792 0.639999 51.312 1.92C54.896 3.136 57.936 4.768 60.432 6.816C62.992 8.8 64.88 10.944 66.096 13.248C67.312 15.552 67.728 17.76 67.344 19.872C67.28 20.448 66.992 20.96 66.48 21.408C65.968 21.792 65.456 21.984 64.944 21.984H45.744C44.848 21.984 44.144 21.856 43.632 21.6C43.184 21.344 42.704 20.96 42.192 20.448C41.936 20.128 41.424 19.776 40.656 19.392C39.888 18.944 38.832 18.72 37.488 18.72C35.888 18.72 34.672 18.976 33.84 19.488C33.008 19.936 32.496 20.576 32.304 21.408C32.176 21.984 32.336 22.528 32.784 23.04C33.296 23.552 34.256 24 35.664 24.384C37.136 24.768 39.28 25.152 42.096 25.536C48.368 26.304 53.232 27.648 56.688 29.568C60.208 31.488 62.544 33.984 63.696 37.056C64.848 40.064 64.976 43.648 64.08 47.808C62.608 54.784 58.96 60.096 53.136 63.744C47.312 67.328 39.376 69.12 29.328 69.12Z" fill="#080808"/>
</svg>
